# xmcd CD database file
#
# Track frame offsets:
#	150
#	17502
#	32887
#	50740
#	68392
#	84775
#	102382
#	120885
#	133792
#	149727
#	164242
#	176540
#
# Disc length: 2609 seconds
#
# Revision: 0
# Processed by: cddbd v1.5.1PL0 Copyright (c) Steve Scherf et al.
# Submitted via: CDex 1.51
#
DISCID=a10a2f0c
DTITLE=Various Artist - 50 Years of Country Hits Gold: 1995-1999
DYEAR=2003
DGENRE=Country
TTITLE0=Right on the Money
TTITLE1=She's Got It All
TTITLE2=When You Say Nothing At All
TTITLE3=Nothin' But the Taillights
TTITLE4=No Place That Far
TTITLE5=He Didn't Have to Be
TTITLE6=How Your Love Makes Me Feel
TTITLE7=Go Away
TTITLE8=You Won't Ever Be Lonely
TTITLE9=Guys Do It All the Time
TTITLE10=Should've Asked Her Faster
TTITLE11=I'm Not Strong Enough to Say No
EXTD=YEAR: 2003
EXTT0=
EXTT1=
EXTT2=
EXTT3=
EXTT4=
EXTT5=
EXTT6=
EXTT7=
EXTT8=
EXTT9=
EXTT10=
EXTT11=
PLAYORDER=
